<svg width="243" height="58" viewBox="0 0 243 58" fill="none" xmlns="http://www.w3.org/2000/svg">
<path d="M3.384 35V10.52H11.448C14.016 10.52 15.936 11.168 17.208 12.464C18.504 13.76 19.152 15.488 19.152 17.648V19.556C19.152 21.716 18.504 23.456 17.208 24.776C15.936 26.072 14.016 26.72 11.448 26.72H7.704V35H3.384ZM11.448 14.66H7.704V22.58H11.448C12.504 22.58 13.308 22.316 13.86 21.788C14.436 21.26 14.724 20.516 14.724 19.556V17.648C14.724 16.712 14.436 15.98 13.86 15.452C13.308 14.924 12.504 14.66 11.448 14.66ZM27.3679 25.316C27.3679 27.068 27.7519 28.508 28.5199 29.636C29.2879 30.74 30.5479 31.292 32.2999 31.292C33.0199 31.292 33.7639 31.196 34.5319 31.004C35.3239 30.812 36.2959 30.488 37.4479 30.032L38.7799 33.776C37.4839 34.352 36.2839 34.76 35.1799 35C34.0999 35.24 33.0559 35.36 32.0479 35.36C30.0319 35.36 28.3399 34.928 26.9719 34.064C25.6279 33.2 24.6199 32.012 23.9479 30.5C23.2759 28.988 22.9399 27.26 22.9399 25.316V20.168C22.9399 18.224 23.2759 16.496 23.9479 14.984C24.6199 13.472 25.6279 12.296 26.9719 11.456C28.3399 10.592 30.0319 10.16 32.0479 10.16C33.0319 10.16 34.0519 10.28 35.1079 10.52C36.1639 10.736 37.3159 11.12 38.5639 11.672L37.2319 15.488C36.1279 15.032 35.2039 14.708 34.4599 14.516C33.7159 14.324 32.9959 14.228 32.2999 14.228C30.5479 14.228 29.2879 14.78 28.5199 15.884C27.7519 16.988 27.3679 18.416 27.3679 20.168V25.316ZM56.3183 35L54.8063 30.212H46.4183L44.9063 35H40.6223L48.7943 10.52H52.6103L60.8183 35H56.3183ZM48.7583 22.724L47.6423 26.252H53.5463L52.4303 22.724L50.6303 16.532L48.7583 22.724ZM79.0194 30.86V35H64.9074V10.52H69.2274V30.86H79.0194Z" fill="#34BCE4"/>
<path d="M1.41 54V43.8H4.77C5.84 43.8 6.64 44.07 7.17 44.61C7.71 45.15 7.98 45.87 7.98 46.77V47.565C7.98 48.465 7.71 49.19 7.17 49.74C6.64 50.28 5.84 50.55 4.77 50.55H3.21V54H1.41ZM4.77 45.525H3.21V48.825H4.77C5.21 48.825 5.545 48.715 5.775 48.495C6.015 48.275 6.135 47.965 6.135 47.565V46.77C6.135 46.38 6.015 46.075 5.775 45.855C5.545 45.635 5.21 45.525 4.77 45.525ZM13.9418 47.97C13.4718 47.97 13.0218 48.045 12.5918 48.195C12.1718 48.335 11.7668 48.565 11.3768 48.885V54H9.6518V46.395H11.2868V47.565C11.7968 47.085 12.2518 46.745 12.6518 46.545C13.0518 46.345 13.4818 46.245 13.9418 46.245V47.97ZM21.6776 49.74V50.64C21.6776 51.7 21.3876 52.55 20.8076 53.19C20.2276 53.83 19.4076 54.15 18.3476 54.15C17.2876 54.15 16.4676 53.83 15.8876 53.19C15.3076 52.55 15.0176 51.7 15.0176 50.64V49.74C15.0176 48.68 15.3026 47.835 15.8726 47.205C16.4526 46.565 17.2776 46.245 18.3476 46.245C19.4176 46.245 20.2376 46.565 20.8076 47.205C21.3876 47.835 21.6776 48.68 21.6776 49.74ZM19.9076 49.74C19.9076 49.13 19.7726 48.655 19.5026 48.315C19.2326 47.965 18.8476 47.79 18.3476 47.79C17.8476 47.79 17.4626 47.965 17.1926 48.315C16.9226 48.655 16.7876 49.13 16.7876 49.74V50.64C16.7876 51.25 16.9226 51.73 17.1926 52.08C17.4626 52.43 17.8476 52.605 18.3476 52.605C18.8476 52.605 19.2326 52.43 19.5026 52.08C19.7726 51.73 19.9076 51.25 19.9076 50.64V49.74ZM29.9268 54.765C29.9268 55.575 29.6068 56.205 28.9668 56.655C28.3368 57.115 27.4568 57.345 26.3268 57.345C25.7968 57.345 25.2368 57.285 24.6468 57.165C24.0568 57.045 23.5118 56.845 23.0118 56.565L23.5068 55.2C23.9868 55.44 24.4618 55.61 24.9318 55.71C25.4018 55.82 25.8618 55.875 26.3118 55.875C26.9418 55.875 27.4218 55.79 27.7518 55.62C28.0818 55.45 28.2468 55.225 28.2468 54.945C28.2468 54.515 27.9918 54.3 27.4818 54.3H25.6818C25.1918 54.3 24.7968 54.22 24.4968 54.06C24.1968 53.9 23.9768 53.695 23.8368 53.445C23.6968 53.185 23.6268 52.915 23.6268 52.635C23.6268 52.345 23.6868 52.075 23.8068 51.825C23.9368 51.565 24.1118 51.325 24.3318 51.105C23.9718 50.885 23.6818 50.59 23.4618 50.22C23.2518 49.85 23.1468 49.405 23.1468 48.885C23.1468 48.295 23.2718 47.805 23.5218 47.415C23.7718 47.025 24.1118 46.735 24.5418 46.545C24.9818 46.345 25.4668 46.245 25.9968 46.245H26.2518C26.4518 46.245 26.6468 46.26 26.8368 46.29C27.0268 46.31 27.2068 46.345 27.3768 46.395H30.0918V47.865L28.5918 47.625C28.7418 47.785 28.8568 47.985 28.9368 48.225C29.0268 48.455 29.0718 48.74 29.0718 49.08C29.0718 49.59 28.9418 50.03 28.6818 50.4C28.4318 50.76 28.0918 51.04 27.6618 51.24C27.2418 51.43 26.7718 51.525 26.2518 51.525H25.9968C25.7968 51.525 25.6068 51.51 25.4268 51.48C25.3168 51.6 25.2368 51.725 25.1868 51.855C25.1368 51.975 25.1118 52.09 25.1118 52.2C25.1118 52.55 25.3368 52.725 25.7868 52.725H27.6168C28.3068 52.725 28.8618 52.905 29.2818 53.265C29.7118 53.615 29.9268 54.115 29.9268 54.765ZM26.2518 50.115C26.5618 50.115 26.8318 50.01 27.0618 49.8C27.3018 49.59 27.4218 49.285 27.4218 48.885C27.4218 48.485 27.3018 48.18 27.0618 47.97C26.8318 47.76 26.5618 47.655 26.2518 47.655H25.9968C25.6768 47.655 25.3968 47.76 25.1568 47.97C24.9268 48.18 24.8118 48.485 24.8118 48.885C24.8118 49.285 24.9268 49.59 25.1568 49.8C25.3968 50.01 25.6768 50.115 25.9968 50.115H26.2518ZM35.8705 47.97C35.4005 47.97 34.9505 48.045 34.5205 48.195C34.1005 48.335 33.6955 48.565 33.3055 48.885V54H31.5805V46.395H33.2155V47.565C33.7255 47.085 34.1805 46.745 34.5805 46.545C34.9805 46.345 35.4105 46.245 35.8705 46.245V47.97ZM43.1563 53.565C42.6363 53.775 42.1463 53.925 41.6863 54.015C41.2263 54.105 40.7913 54.15 40.3813 54.15C39.2513 54.15 38.3963 53.83 37.8163 53.19C37.2363 52.55 36.9463 51.7 36.9463 50.64V49.74C36.9463 49.03 37.0763 48.415 37.3363 47.895C37.5963 47.375 37.9663 46.97 38.4463 46.68C38.9263 46.39 39.4913 46.245 40.1413 46.245C40.6713 46.245 41.1663 46.355 41.6263 46.575C42.0963 46.785 42.4763 47.12 42.7663 47.58C43.0663 48.03 43.2163 48.61 43.2163 49.32C43.2163 49.53 43.2013 49.755 43.1713 49.995C43.1413 50.225 43.0913 50.47 43.0213 50.73H38.6113C38.6313 51.35 38.7863 51.815 39.0763 52.125C39.3663 52.435 39.8313 52.59 40.4713 52.59C40.8113 52.59 41.1613 52.55 41.5213 52.47C41.8913 52.39 42.2713 52.27 42.6613 52.11L43.1563 53.565ZM40.1413 47.7C39.6813 47.7 39.3213 47.85 39.0613 48.15C38.8113 48.44 38.6663 48.86 38.6263 49.41H41.5063C41.5163 49.36 41.5213 49.315 41.5213 49.275C41.5213 49.225 41.5213 49.18 41.5213 49.14C41.5213 48.66 41.3863 48.3 41.1163 48.06C40.8463 47.82 40.5213 47.7 40.1413 47.7ZM47.3336 52.65C47.7036 52.65 48.0086 52.59 48.2486 52.47C48.4886 52.34 48.6086 52.15 48.6086 51.9C48.6086 51.68 48.5286 51.51 48.3686 51.39C48.2186 51.26 47.9436 51.145 47.5436 51.045L46.6886 50.82C46.0286 50.65 45.5386 50.365 45.2186 49.965C44.9086 49.565 44.7536 49.09 44.7536 48.54C44.7536 47.89 44.9786 47.345 45.4286 46.905C45.8786 46.465 46.5736 46.245 47.5136 46.245C47.8936 46.245 48.2936 46.29 48.7136 46.38C49.1336 46.47 49.5736 46.615 50.0336 46.815L49.5386 48.285C49.1186 48.085 48.7386 47.945 48.3986 47.865C48.0586 47.785 47.7586 47.745 47.4986 47.745C46.7886 47.745 46.4336 47.985 46.4336 48.465C46.4336 48.655 46.4936 48.805 46.6136 48.915C46.7436 49.025 46.9786 49.125 47.3186 49.215L48.1736 49.44C48.9036 49.63 49.4336 49.92 49.7636 50.31C50.1036 50.7 50.2736 51.19 50.2736 51.78C50.2736 52.48 50.0336 53.05 49.5536 53.49C49.0836 53.93 48.3386 54.15 47.3186 54.15C46.4486 54.15 45.5336 53.95 44.5736 53.55L45.0386 52.125C45.5086 52.315 45.9336 52.45 46.3136 52.53C46.6936 52.61 47.0336 52.65 47.3336 52.65ZM54.1744 52.65C54.5444 52.65 54.8494 52.59 55.0894 52.47C55.3294 52.34 55.4494 52.15 55.4494 51.9C55.4494 51.68 55.3694 51.51 55.2094 51.39C55.0594 51.26 54.7844 51.145 54.3844 51.045L53.5294 50.82C52.8694 50.65 52.3794 50.365 52.0594 49.965C51.7494 49.565 51.5944 49.09 51.5944 48.54C51.5944 47.89 51.8194 47.345 52.2694 46.905C52.7194 46.465 53.4144 46.245 54.3544 46.245C54.7344 46.245 55.1344 46.29 55.5544 46.38C55.9744 46.47 56.4144 46.615 56.8744 46.815L56.3794 48.285C55.9594 48.085 55.5794 47.945 55.2394 47.865C54.8994 47.785 54.5994 47.745 54.3394 47.745C53.6294 47.745 53.2744 47.985 53.2744 48.465C53.2744 48.655 53.3344 48.805 53.4544 48.915C53.5844 49.025 53.8194 49.125 54.1594 49.215L55.0144 49.44C55.7444 49.63 56.2744 49.92 56.6044 50.31C56.9444 50.7 57.1144 51.19 57.1144 51.78C57.1144 52.48 56.8744 53.05 56.3944 53.49C55.9244 53.93 55.1794 54.15 54.1594 54.15C53.2894 54.15 52.3744 53.95 51.4144 53.55L51.8794 52.125C52.3494 52.315 52.7744 52.45 53.1544 52.53C53.5344 52.61 53.8744 52.65 54.1744 52.65ZM60.6552 44.955H58.8402V43.17H60.6552V44.955ZM60.6102 54H58.8852V46.395H60.6102V54ZM69.0318 46.395L66.3318 54H64.7568L62.0568 46.395H63.7968L65.1018 50.19L65.5968 51.765L66.0768 50.19L67.3218 46.395H69.0318ZM76.1006 53.565C75.5806 53.775 75.0906 53.925 74.6306 54.015C74.1706 54.105 73.7356 54.15 73.3256 54.15C72.1956 54.15 71.3406 53.83 70.7606 53.19C70.1806 52.55 69.8906 51.7 69.8906 50.64V49.74C69.8906 49.03 70.0206 48.415 70.2806 47.895C70.5406 47.375 70.9106 46.97 71.3906 46.68C71.8706 46.39 72.4356 46.245 73.0856 46.245C73.6156 46.245 74.1106 46.355 74.5706 46.575C75.0406 46.785 75.4206 47.12 75.7106 47.58C76.0106 48.03 76.1606 48.61 76.1606 49.32C76.1606 49.53 76.1456 49.755 76.1156 49.995C76.0856 50.225 76.0356 50.47 75.9656 50.73H71.5556C71.5756 51.35 71.7306 51.815 72.0206 52.125C72.3106 52.435 72.7756 52.59 73.4156 52.59C73.7556 52.59 74.1056 52.55 74.4656 52.47C74.8356 52.39 75.2156 52.27 75.6056 52.11L76.1006 53.565ZM73.0856 47.7C72.6256 47.7 72.2656 47.85 72.0056 48.15C71.7556 48.44 71.6106 48.86 71.5706 49.41H74.4506C74.4606 49.36 74.4656 49.315 74.4656 49.275C74.4656 49.225 74.4656 49.18 74.4656 49.14C74.4656 48.66 74.3306 48.3 74.0606 48.06C73.7906 47.82 73.4656 47.7 73.0856 47.7Z" fill="#229A3D"/>
<path d="M185.475 44.955H183.66V43.17H185.475V44.955ZM185.43 54H183.705V46.395H185.43V54ZM191.526 47.85C191.276 47.85 190.991 47.91 190.671 48.03C190.351 48.15 189.971 48.385 189.531 48.735V54H187.806V46.395H189.441V47.415C189.911 47.005 190.356 46.71 190.776 46.53C191.196 46.34 191.621 46.245 192.051 46.245C192.781 46.245 193.336 46.48 193.716 46.95C194.096 47.41 194.286 48.06 194.286 48.9V54H192.561V49.11C192.561 48.27 192.216 47.85 191.526 47.85ZM198.336 44.955H196.521V43.17H198.336V44.955ZM198.291 54H196.566V46.395H198.291V54ZM205.242 53.745C204.982 53.865 204.682 53.96 204.342 54.03C204.002 54.11 203.657 54.15 203.307 54.15C202.727 54.15 202.262 54.03 201.912 53.79C201.562 53.55 201.307 53.215 201.147 52.785C200.997 52.355 200.922 51.865 200.922 51.315V47.895H199.692V46.395H200.922V44.415H202.647V46.395H205.017V47.895H202.647V51.315C202.647 51.775 202.732 52.095 202.902 52.275C203.082 52.445 203.337 52.53 203.667 52.53C203.827 52.53 203.997 52.515 204.177 52.485C204.367 52.445 204.577 52.38 204.807 52.29L205.242 53.745ZM208.399 44.955H206.584V43.17H208.399V44.955ZM208.354 54H206.629V46.395H208.354V54ZM216.491 54.075C215.981 54.075 215.571 53.97 215.261 53.76C214.961 53.55 214.741 53.29 214.601 52.98C214.171 53.38 213.756 53.675 213.356 53.865C212.956 54.055 212.526 54.15 212.066 54.15C211.396 54.15 210.901 53.935 210.581 53.505C210.271 53.075 210.116 52.53 210.116 51.87C210.116 51.43 210.196 51.045 210.356 50.715C210.526 50.375 210.801 50.11 211.181 49.92C211.561 49.73 212.081 49.635 212.741 49.635C213.001 49.635 213.271 49.655 213.551 49.695C213.831 49.725 214.111 49.765 214.391 49.815V48.93C214.391 48.51 214.276 48.225 214.046 48.075C213.816 47.915 213.506 47.835 213.116 47.835C212.816 47.835 212.486 47.875 212.126 47.955C211.776 48.035 211.396 48.16 210.986 48.33L210.491 46.86C211.501 46.45 212.416 46.245 213.236 46.245C213.976 46.245 214.546 46.37 214.946 46.62C215.356 46.87 215.641 47.2 215.801 47.61C215.961 48.02 216.041 48.46 216.041 48.93V51.855C216.041 52.005 216.081 52.15 216.161 52.29C216.251 52.42 216.421 52.485 216.671 52.485H216.836V54.075H216.491ZM211.781 51.84C211.781 52.11 211.841 52.325 211.961 52.485C212.081 52.635 212.256 52.71 212.486 52.71C212.716 52.71 212.976 52.65 213.266 52.53C213.556 52.41 213.931 52.13 214.391 51.69V51.045C213.871 50.955 213.361 50.91 212.861 50.91C212.471 50.91 212.191 50.99 212.021 51.15C211.861 51.31 211.781 51.54 211.781 51.84ZM222.908 53.745C222.648 53.865 222.348 53.96 222.008 54.03C221.668 54.11 221.323 54.15 220.973 54.15C220.393 54.15 219.928 54.03 219.578 53.79C219.228 53.55 218.973 53.215 218.813 52.785C218.663 52.355 218.588 51.865 218.588 51.315V47.895H217.358V46.395H218.588V44.415H220.313V46.395H222.683V47.895H220.313V51.315C220.313 51.775 220.398 52.095 220.568 52.275C220.748 52.445 221.003 52.53 221.333 52.53C221.493 52.53 221.663 52.515 221.843 52.485C222.033 52.445 222.243 52.38 222.473 52.29L222.908 53.745ZM226.065 44.955H224.25V43.17H226.065V44.955ZM226.02 54H224.295V46.395H226.02V54ZM234.442 46.395L231.742 54H230.167L227.467 46.395H229.207L230.512 50.19L231.007 51.765L231.487 50.19L232.732 46.395H234.442ZM241.511 53.565C240.991 53.775 240.501 53.925 240.041 54.015C239.581 54.105 239.146 54.15 238.736 54.15C237.606 54.15 236.751 53.83 236.171 53.19C235.591 52.55 235.301 51.7 235.301 50.64V49.74C235.301 49.03 235.431 48.415 235.691 47.895C235.951 47.375 236.321 46.97 236.801 46.68C237.281 46.39 237.846 46.245 238.496 46.245C239.026 46.245 239.521 46.355 239.981 46.575C240.451 46.785 240.831 47.12 241.121 47.58C241.421 48.03 241.571 48.61 241.571 49.32C241.571 49.53 241.556 49.755 241.526 49.995C241.496 50.225 241.446 50.47 241.376 50.73H236.966C236.986 51.35 237.141 51.815 237.431 52.125C237.721 52.435 238.186 52.59 238.826 52.59C239.166 52.59 239.516 52.55 239.876 52.47C240.246 52.39 240.626 52.27 241.016 52.11L241.511 53.565ZM238.496 47.7C238.036 47.7 237.676 47.85 237.416 48.15C237.166 48.44 237.021 48.86 236.981 49.41H239.861C239.871 49.36 239.876 49.315 239.876 49.275C239.876 49.225 239.876 49.18 239.876 49.14C239.876 48.66 239.741 48.3 239.471 48.06C239.201 47.82 238.876 47.7 238.496 47.7Z" fill="#34BCE4"/>
<path d="M82.7558 49.965C82.7558 50.695 82.9158 51.295 83.2358 51.765C83.5558 52.225 84.0808 52.455 84.8108 52.455C85.1108 52.455 85.4208 52.415 85.7408 52.335C86.0708 52.255 86.4758 52.12 86.9558 51.93L87.5108 53.49C86.9708 53.73 86.4708 53.9 86.0108 54C85.5608 54.1 85.1258 54.15 84.7058 54.15C83.8658 54.15 83.1608 53.97 82.5908 53.61C82.0308 53.25 81.6108 52.755 81.3308 52.125C81.0508 51.495 80.9108 50.775 80.9108 49.965V47.82C80.9108 47.01 81.0508 46.29 81.3308 45.66C81.6108 45.03 82.0308 44.54 82.5908 44.19C83.1608 43.83 83.8658 43.65 84.7058 43.65C85.1158 43.65 85.5408 43.7 85.9808 43.8C86.4208 43.89 86.9008 44.05 87.4208 44.28L86.8658 45.87C86.4058 45.68 86.0208 45.545 85.7108 45.465C85.4008 45.385 85.1008 45.345 84.8108 45.345C84.0808 45.345 83.5558 45.575 83.2358 46.035C82.9158 46.495 82.7558 47.09 82.7558 47.82V49.965ZM92.8835 47.85C92.6335 47.85 92.3485 47.91 92.0285 48.03C91.7085 48.15 91.3285 48.385 90.8885 48.735V54H89.1635V42.9H90.8885V47.34C91.3485 46.95 91.7785 46.67 92.1785 46.5C92.5785 46.33 92.9885 46.245 93.4085 46.245C94.1385 46.245 94.6935 46.48 95.0735 46.95C95.4535 47.41 95.6435 48.06 95.6435 48.9V54H93.9185V49.11C93.9185 48.27 93.5735 47.85 92.8835 47.85ZM103.683 54.075C103.173 54.075 102.763 53.97 102.453 53.76C102.153 53.55 101.933 53.29 101.793 52.98C101.363 53.38 100.948 53.675 100.548 53.865C100.148 54.055 99.7183 54.15 99.2583 54.15C98.5883 54.15 98.0933 53.935 97.7733 53.505C97.4633 53.075 97.3083 52.53 97.3083 51.87C97.3083 51.43 97.3883 51.045 97.5483 50.715C97.7183 50.375 97.9933 50.11 98.3733 49.92C98.7533 49.73 99.2733 49.635 99.9333 49.635C100.193 49.635 100.463 49.655 100.743 49.695C101.023 49.725 101.303 49.765 101.583 49.815V48.93C101.583 48.51 101.468 48.225 101.238 48.075C101.008 47.915 100.698 47.835 100.308 47.835C100.008 47.835 99.6783 47.875 99.3183 47.955C98.9683 48.035 98.5883 48.16 98.1783 48.33L97.6833 46.86C98.6933 46.45 99.6083 46.245 100.428 46.245C101.168 46.245 101.738 46.37 102.138 46.62C102.548 46.87 102.833 47.2 102.993 47.61C103.153 48.02 103.233 48.46 103.233 48.93V51.855C103.233 52.005 103.273 52.15 103.353 52.29C103.443 52.42 103.613 52.485 103.863 52.485H104.028V54.075H103.683ZM98.9733 51.84C98.9733 52.11 99.0333 52.325 99.1533 52.485C99.2733 52.635 99.4483 52.71 99.6783 52.71C99.9083 52.71 100.168 52.65 100.458 52.53C100.748 52.41 101.123 52.13 101.583 51.69V51.045C101.063 50.955 100.553 50.91 100.053 50.91C99.6633 50.91 99.3833 50.99 99.2133 51.15C99.0533 51.31 98.9733 51.54 98.9733 51.84ZM109.246 47.85C108.996 47.85 108.711 47.91 108.391 48.03C108.071 48.15 107.691 48.385 107.251 48.735V54H105.526V46.395H107.161V47.415C107.631 47.005 108.076 46.71 108.496 46.53C108.916 46.34 109.341 46.245 109.771 46.245C110.501 46.245 111.056 46.48 111.436 46.95C111.816 47.41 112.006 48.06 112.006 48.9V54H110.281V49.11C110.281 48.27 109.936 47.85 109.246 47.85ZM120.601 54.765C120.601 55.575 120.281 56.205 119.641 56.655C119.011 57.115 118.131 57.345 117.001 57.345C116.471 57.345 115.911 57.285 115.321 57.165C114.731 57.045 114.186 56.845 113.686 56.565L114.181 55.2C114.661 55.44 115.136 55.61 115.606 55.71C116.076 55.82 116.536 55.875 116.986 55.875C117.616 55.875 118.096 55.79 118.426 55.62C118.756 55.45 118.921 55.225 118.921 54.945C118.921 54.515 118.666 54.3 118.156 54.3H116.356C115.866 54.3 115.471 54.22 115.171 54.06C114.871 53.9 114.651 53.695 114.511 53.445C114.371 53.185 114.301 52.915 114.301 52.635C114.301 52.345 114.361 52.075 114.481 51.825C114.611 51.565 114.786 51.325 115.006 51.105C114.646 50.885 114.356 50.59 114.136 50.22C113.926 49.85 113.821 49.405 113.821 48.885C113.821 48.295 113.946 47.805 114.196 47.415C114.446 47.025 114.786 46.735 115.216 46.545C115.656 46.345 116.141 46.245 116.671 46.245H116.926C117.126 46.245 117.321 46.26 117.511 46.29C117.701 46.31 117.881 46.345 118.051 46.395H120.766V47.865L119.266 47.625C119.416 47.785 119.531 47.985 119.611 48.225C119.701 48.455 119.746 48.74 119.746 49.08C119.746 49.59 119.616 50.03 119.356 50.4C119.106 50.76 118.766 51.04 118.336 51.24C117.916 51.43 117.446 51.525 116.926 51.525H116.671C116.471 51.525 116.281 51.51 116.101 51.48C115.991 51.6 115.911 51.725 115.861 51.855C115.811 51.975 115.786 52.09 115.786 52.2C115.786 52.55 116.011 52.725 116.461 52.725H118.291C118.981 52.725 119.536 52.905 119.956 53.265C120.386 53.615 120.601 54.115 120.601 54.765ZM116.926 50.115C117.236 50.115 117.506 50.01 117.736 49.8C117.976 49.59 118.096 49.285 118.096 48.885C118.096 48.485 117.976 48.18 117.736 47.97C117.506 47.76 117.236 47.655 116.926 47.655H116.671C116.351 47.655 116.071 47.76 115.831 47.97C115.601 48.18 115.486 48.485 115.486 48.885C115.486 49.285 115.601 49.59 115.831 49.8C116.071 50.01 116.351 50.115 116.671 50.115H116.926ZM128.029 53.565C127.509 53.775 127.019 53.925 126.559 54.015C126.099 54.105 125.664 54.15 125.254 54.15C124.124 54.15 123.269 53.83 122.689 53.19C122.109 52.55 121.819 51.7 121.819 50.64V49.74C121.819 49.03 121.949 48.415 122.209 47.895C122.469 47.375 122.839 46.97 123.319 46.68C123.799 46.39 124.364 46.245 125.014 46.245C125.544 46.245 126.039 46.355 126.499 46.575C126.969 46.785 127.349 47.12 127.639 47.58C127.939 48.03 128.089 48.61 128.089 49.32C128.089 49.53 128.074 49.755 128.044 49.995C128.014 50.225 127.964 50.47 127.894 50.73H123.484C123.504 51.35 123.659 51.815 123.949 52.125C124.239 52.435 124.704 52.59 125.344 52.59C125.684 52.59 126.034 52.55 126.394 52.47C126.764 52.39 127.144 52.27 127.534 52.11L128.029 53.565ZM125.014 47.7C124.554 47.7 124.194 47.85 123.934 48.15C123.684 48.44 123.539 48.86 123.499 49.41H126.379C126.389 49.36 126.394 49.315 126.394 49.275C126.394 49.225 126.394 49.18 126.394 49.14C126.394 48.66 126.259 48.3 125.989 48.06C125.719 47.82 125.394 47.7 125.014 47.7ZM138.735 54L138.105 52.005H134.61L133.98 54H132.195L135.6 43.8H137.19L140.61 54H138.735ZM135.585 48.885L135.12 50.355H137.58L137.115 48.885L136.365 46.305L135.585 48.885ZM148.257 54.765C148.257 55.575 147.937 56.205 147.297 56.655C146.667 57.115 145.787 57.345 144.657 57.345C144.127 57.345 143.567 57.285 142.977 57.165C142.387 57.045 141.842 56.845 141.342 56.565L141.837 55.2C142.317 55.44 142.792 55.61 143.262 55.71C143.732 55.82 144.192 55.875 144.642 55.875C145.272 55.875 145.752 55.79 146.082 55.62C146.412 55.45 146.577 55.225 146.577 54.945C146.577 54.515 146.322 54.3 145.812 54.3H144.012C143.522 54.3 143.127 54.22 142.827 54.06C142.527 53.9 142.307 53.695 142.167 53.445C142.027 53.185 141.957 52.915 141.957 52.635C141.957 52.345 142.017 52.075 142.137 51.825C142.267 51.565 142.442 51.325 142.662 51.105C142.302 50.885 142.012 50.59 141.792 50.22C141.582 49.85 141.477 49.405 141.477 48.885C141.477 48.295 141.602 47.805 141.852 47.415C142.102 47.025 142.442 46.735 142.872 46.545C143.312 46.345 143.797 46.245 144.327 46.245H144.582C144.782 46.245 144.977 46.26 145.167 46.29C145.357 46.31 145.537 46.345 145.707 46.395H148.422V47.865L146.922 47.625C147.072 47.785 147.187 47.985 147.267 48.225C147.357 48.455 147.402 48.74 147.402 49.08C147.402 49.59 147.272 50.03 147.012 50.4C146.762 50.76 146.422 51.04 145.992 51.24C145.572 51.43 145.102 51.525 144.582 51.525H144.327C144.127 51.525 143.937 51.51 143.757 51.48C143.647 51.6 143.567 51.725 143.517 51.855C143.467 51.975 143.442 52.09 143.442 52.2C143.442 52.55 143.667 52.725 144.117 52.725H145.947C146.637 52.725 147.192 52.905 147.612 53.265C148.042 53.615 148.257 54.115 148.257 54.765ZM144.582 50.115C144.892 50.115 145.162 50.01 145.392 49.8C145.632 49.59 145.752 49.285 145.752 48.885C145.752 48.485 145.632 48.18 145.392 47.97C145.162 47.76 144.892 47.655 144.582 47.655H144.327C144.007 47.655 143.727 47.76 143.487 47.97C143.257 48.18 143.142 48.485 143.142 48.885C143.142 49.285 143.257 49.59 143.487 49.8C143.727 50.01 144.007 50.115 144.327 50.115H144.582ZM155.686 53.565C155.166 53.775 154.676 53.925 154.216 54.015C153.756 54.105 153.321 54.15 152.911 54.15C151.781 54.15 150.926 53.83 150.346 53.19C149.766 52.55 149.476 51.7 149.476 50.64V49.74C149.476 49.03 149.606 48.415 149.866 47.895C150.126 47.375 150.496 46.97 150.976 46.68C151.456 46.39 152.021 46.245 152.671 46.245C153.201 46.245 153.696 46.355 154.156 46.575C154.626 46.785 155.006 47.12 155.296 47.58C155.596 48.03 155.746 48.61 155.746 49.32C155.746 49.53 155.731 49.755 155.701 49.995C155.671 50.225 155.621 50.47 155.551 50.73H151.141C151.161 51.35 151.316 51.815 151.606 52.125C151.896 52.435 152.361 52.59 153.001 52.59C153.341 52.59 153.691 52.55 154.051 52.47C154.421 52.39 154.801 52.27 155.191 52.11L155.686 53.565ZM152.671 47.7C152.211 47.7 151.851 47.85 151.591 48.15C151.341 48.44 151.196 48.86 151.156 49.41H154.036C154.046 49.36 154.051 49.315 154.051 49.275C154.051 49.225 154.051 49.18 154.051 49.14C154.051 48.66 153.916 48.3 153.646 48.06C153.376 47.82 153.051 47.7 152.671 47.7ZM161.453 47.85C161.203 47.85 160.918 47.91 160.598 48.03C160.278 48.15 159.898 48.385 159.458 48.735V54H157.733V46.395H159.368V47.415C159.838 47.005 160.283 46.71 160.703 46.53C161.123 46.34 161.548 46.245 161.978 46.245C162.708 46.245 163.263 46.48 163.643 46.95C164.023 47.41 164.213 48.06 164.213 48.9V54H162.488V49.11C162.488 48.27 162.143 47.85 161.453 47.85ZM167.813 49.755V50.64C167.813 51.28 167.928 51.76 168.158 52.08C168.388 52.4 168.758 52.56 169.268 52.56C169.518 52.56 169.798 52.53 170.108 52.47C170.428 52.4 170.773 52.295 171.143 52.155L171.638 53.61C171.188 53.79 170.763 53.925 170.363 54.015C169.963 54.105 169.568 54.15 169.178 54.15C168.178 54.15 167.413 53.83 166.883 53.19C166.353 52.55 166.088 51.7 166.088 50.64V49.755C166.088 48.685 166.353 47.835 166.883 47.205C167.413 46.565 168.178 46.245 169.178 46.245C169.558 46.245 169.943 46.29 170.333 46.38C170.723 46.47 171.133 46.6 171.563 46.77L171.068 48.255C170.348 47.975 169.748 47.835 169.268 47.835C168.758 47.835 168.388 47.995 168.158 48.315C167.928 48.625 167.813 49.105 167.813 49.755ZM176.291 54.75C175.961 55.67 175.541 56.33 175.031 56.73C174.521 57.14 173.821 57.345 172.931 57.345V55.62C173.461 55.6 173.876 55.48 174.176 55.26C174.486 55.05 174.716 54.755 174.866 54.375L175.001 54.03L172.286 46.395H173.996L175.301 50.19L175.811 51.795L176.306 50.19L177.551 46.395H179.261L176.291 54.75Z" fill="#DE1419"/>
</svg>
